# xmcd
#
# Track frame offsets: 
#        150
#        18803
#        36046
#        51871
#        70044
#        86844
#        99992
#        112480
#        130285
#        152913
#        179238
#        199668
#        230598
#        245148
#        265031
#        284104
#        306957
#        328880
#        341750
#
# Disc length: 4784 seconds
#
# Revision: 4
# Processed by: cddbd v1.5.2PL0 Copyright (c) Steve Scherf et al.
# Submitted via: ExactAudioCopyFreeDBPlugin 1.0
#
DISCID=2912ae13
DTITLE=Maria Muldaur - I'm A Woman-30 Years Of Maria Muldaur (2004 Sho
DTITLE=ut Factory USA ‎DK 30219)
DYEAR=2004
DGENRE=Pop
TTITLE0=I'm A Woman
TTITLE1=Midnight At The Oasis
TTITLE2=My Tennessee Mountain Home
TTITLE3=The Work Song
TTITLE4=Rockin' Chair
TTITLE5=It Ain't The Meat (It's The Motion)
TTITLE6=Don't You Make Me High (Don't You Feel My Leg)
TTITLE7=Three Dollar Bill
TTITLE8=Cajun Moon
TTITLE9=Louisiana Love Call
TTITLE10=Best Of Me
TTITLE11=It Feels Like Rain
TTITLE12=Me and My Chauffeur Blues (With Roy Rogers)
TTITLE13=Gee Baby, Ain't I Good To You (With Charles Brown)
TTITLE14=Get Up, Get Ready
TTITLE15=Somebody Was Watching Over Me (With Bonnie Raitt)
TTITLE16=Well, Well, Well
TTITLE17=Soul Of A Man (With Taj Mahal)
TTITLE18=It's A Blessing (With Bonnie Raitt)
EXTD=YEAR: 2004
EXTT0=
EXTT1=
EXTT2=
EXTT3=
EXTT4=
EXTT5=
EXTT6=
EXTT7=
EXTT8=
EXTT9=
EXTT10=
EXTT11=
EXTT12=
EXTT13=
EXTT14=
EXTT15=
EXTT16=
EXTT17=
EXTT18=
PLAYORDER=
